#!OML:ASF F:\VICON\USERDATA\INSTALL\rory3\rory3.ASF
:FULLY-SPECIFIED
:DEGREES
3880
root -4.83455 17.7427 13.3006 -721.014 39.438 3.2284
lowerback 12.3284 1.7709 1.53725
upperback 0.806506 2.59252 0.178836
thorax -6.00533 1.23981 -1.1261
lowerneck -20.7162 -2.41732 -11.5274
upperneck 34.6488 -0.254752 4.27499
head 15.8393 -0.887211 3.84656
rclavicle 3.8266e-014 -8.74653e-015
rhumerus -35.0055 -6.45817 -79.6499
rradius 35.6672
rwrist 7.52192
rhand -17.7529 10.8967
rfingers 7.12502
rthumb 8.5088 -18.9118
lclavicle 3.8266e-014 -8.74653e-015
lhumerus -31.2898 3.53098 82.1066
lradius 35.532
lwrist -1.1714
lhand -22.4506 26.3262
lfingers 7.12502
lthumb 3.97366 56.2689
rfemur -6.93793 -3.84371 19.4789
rtibia 33.0536
rfoot -18.7347 -0.580387
rtoes 5.14025
lfemur -15.6751 -5.85989 -21.1965
ltibia 25.4736
lfoot -9.51656 -8.44128
ltoes -3.15462
3881
root -4.83202 17.7573 13.2716 -721.019 39.9136 3.15537
lowerback 12.4245 1.70632 1.57406
upperback 0.760623 2.51433 0.179369
thorax -6.10822 1.19877 -1.13752
lowerneck -20.6658 -2.34495 -11.4127
upperneck 34.5924 -0.198777 4.27746
head 15.7909 -0.844849 3.83564
rclavicle 5.33737e-014 -1.19271e-015
rhumerus -35.0036 -6.60804 -79.4796
rradius 35.5203
rwrist 7.62393
rhand -18.1641 10.9214
rfingers 7.12502
rthumb 8.11194 -18.9029
lclavicle 5.33737e-014 -1.19271e-015
lhumerus -31.5693 3.37888 82.0655
lradius 35.3804
lwrist -1.10238
lhand -22.1952 25.6854
lfingers 7.12502
lthumb 4.22032 55.6233
rfemur -6.7977 -3.85005 19.5104
rtibia 32.6776
rfoot -18.5163 -1.01372
rtoes 4.86975
lfemur -15.7147 -5.95567 -20.9986
ltibia 25.368
lfoot -9.33446 -7.49462
ltoes -2.15144
3882
root -4.82727 17.775 13.2412 -720.957 40.3895 3.1126
lowerback 12.4622 1.67309 1.63334
upperback 0.706768 2.47966 0.177622
thorax -6.18476 1.17866 -1.16931
lowerneck -20.5657 -2.33837 -11.4529
upperneck 34.4528 -0.216871 4.35044
head 15.7005 -0.841355 3.86411
rclavicle -5.11871e-014 1.59028e-014
rhumerus -35.0139 -7.10752 -79.1617
rradius 35.3778
rwrist 7.87001
rhand -18.6408 10.8957
rfingers 7.12502
rthumb 7.65185 -18.9458
lclavicle -5.11871e-014 1.59028e-014
lhumerus -31.7453 3.09406 82.1672
lradius 35.1324
lwrist -1.28627
lhand -22.0386 25.5998
lfingers 7.12502
lthumb 4.37146 55.5346
rfemur -6.72954 -3.85969 19.5043
rtibia 32.324
rfoot -18.33 -1.45652
rtoes 4.05932
lfemur -15.7942 -5.87497 -20.8303
ltibia 25.3104
lfoot -9.14371 -6.77255
ltoes -2.28046
3883
root -4.81859 17.7907 13.2145 -720.788 40.9268 3.25794
lowerback 12.3863 1.62421 1.51916
upperback 0.718972 2.39735 0.176873
thorax -6.13634 1.14235 -1.08869
lowerneck -20.5413 -2.30182 -11.413
upperneck 34.3289 -0.16779 4.30997
head 15.6287 -0.816247 3.84319
rclavicle 8.74653e-015 7.55382e-015
rhumerus -34.9085 -7.46141 -78.839
rradius 35.2866
rwrist 7.69401
rhand -18.6385 10.5377
rfingers 7.12502
rthumb 7.65411 -19.3038
lclavicle 8.74653e-015 7.55382e-015
lhumerus -31.9194 2.89976 82.3227
lradius 34.9687
lwrist -1.56535
lhand -21.9841 25.6193
lfingers 7.12502
lthumb 4.42412 55.553
rfemur -6.63061 -3.98802 19.3106
rtibia 31.9837
rfoot -18.1596 -1.77562
rtoes 3.07428
lfemur -15.883 -5.62735 -20.835
ltibia 25.2907
lfoot -8.96342 -6.26476
ltoes -2.62653
3884
root -4.80821 17.8023 13.1872 -720.723 41.4964 3.34414
lowerback 12.3463 1.55873 1.45938
upperback 0.771704 2.30136 0.176117
thorax -6.06305 1.09847 -1.03692
lowerneck -20.5804 -2.29396 -11.3478
upperneck 34.264 -0.167802 4.2856
head 15.6054 -0.808346 3.81906
rclavicle -1.799e-014 1.31198e-014
rhumerus -34.7944 -7.8759 -78.5165
rradius 35.2304
rwrist 7.41138
rhand -18.4553 10.3558
rfingers 7.12502
rthumb 7.83093 -19.4791
lclavicle -1.799e-014 1.31198e-014
lhumerus -32.1259 2.55881 82.4834
lradius 34.8993
lwrist -1.83672
lhand -22.0433 25.5996
lfingers 7.12502
lthumb 4.36697 55.5346
rfemur -6.45202 -4.25834 19.1341
rtibia 31.6657
rfoot -18.0039 -1.96359
rtoes 2.34665
lfemur -15.9228 -5.53076 -20.7425
ltibia 25.2655
lfoot -8.82298 -5.57645
ltoes -2.2732
3885
root -4.79778 17.8131 13.157 -720.704 41.9918 3.30797
lowerback 12.2922 1.50256 1.49502
upperback 0.799174 2.2305 0.170545
thorax -6.00402 1.06379 -1.04838
lowerneck -20.5811 -2.30282 -11.3446
upperneck 34.218 -0.207175 4.35207
head 15.5865 -0.81262 3.83831
rclavicle 6.52511e-014 -4.37326e-015
rhumerus -34.7269 -8.4581 -78.2119
rradius 35.1683
rwrist 7.32746
rhand -18.504 10.2936
rfingers 7.12502
rthumb 7.78387 -19.5431
lclavicle 6.52511e-014 -4.37326e-015
lhumerus -32.2547 2.31939 82.5609
lradius 34.6559
lwrist -2.50622
lhand -22.1861 25.5489
lfingers 7.12502
lthumb 4.22911 55.4866
rfemur -6.33834 -4.41926 19.0785
rtibia 31.3694
rfoot -17.8405 -2.25853
rtoes 1.53531
lfemur -15.9783 -5.48378 -20.488
ltibia 25.232
lfoot -8.83436 -4.89894
ltoes -2.14682
3886
root -4.78685 17.824 13.1268 -720.652 42.4737 3.303
lowerback 12.2752 1.44525 1.49036
upperback 0.76403 2.1543 0.178476
thorax -6.03416 1.02606 -1.0246
lowerneck -20.4474 -2.31191 -11.4601
upperneck 34.1986 -0.231593 4.46215
head 15.5491 -0.819997 3.89968
rclavicle -2.40032e-014 2.42517e-014
rhumerus -34.8054 -8.92145 -77.9055
rradius 35.1731
rwrist 7.09253
rhand -18.6238 10.3379
rfingers 7.12502
rthumb 7.66828 -19.5031
lclavicle -2.40032e-014 2.42517e-014
lhumerus -32.3751 2.45702 82.5474
lradius 34.2802
lwrist -3.5501
lhand -22.0858 25.6292
lfingers 7.12502
lthumb 4.32592 55.565
rfemur -6.24134 -4.43685 19.0154
rtibia 31.0842
rfoot -17.686 -2.60823
rtoes 1.61905
lfemur -16.0009 -5.51797 -20.2067
ltibia 25.2097
lfoot -8.87614 -4.46954
ltoes -2.10075
3887
root -4.77442 17.8339 13.095 -720.571 42.9444 3.32365
lowerback 12.3059 1.39115 1.53117
upperback 0.694274 2.08787 0.158185
thorax -6.12464 0.990443 -1.0598
lowerneck -20.339 -2.3244 -11.5381
upperneck 34.2328 -0.257644 4.53932
head 15.5438 -0.829488 3.94269
rclavicle 4.96962e-014 1.82882e-014
rhumerus -34.9679 -9.45494 -77.5711
rradius 35.2414
rwrist 6.83611
rhand -18.5726 10.502
rfingers 7.12502
rthumb 7.71767 -19.3372
lclavicle 4.96962e-014 1.82882e-014
lhumerus -32.5213 2.53854 82.5381
lradius 33.9336
lwrist -4.43077
lhand -21.8552 25.5255
lfingers 7.12502
lthumb 4.54861 55.4566
rfemur -6.19096 -4.62039 18.8989
rtibia 30.8351
rfoot -17.499 -2.80468
rtoes 2.11874
lfemur -16.0462 -5.52928 -19.9233
ltibia 25.1742
lfoot -8.81362 -4.3741
ltoes -2.10725
3888
root -4.76228 17.8421 13.0626 -720.579 43.3779 3.21932
lowerback 12.3539 1.3839 1.70335
upperback 0.611712 2.10148 0.123418
thorax -6.23117 0.9897 -1.19866
lowerneck -20.2559 -2.36709 -11.5914
upperneck 34.3184 -0.344565 4.64828
head 15.5754 -0.858107 3.98684
rclavicle -5.65294e-014 3.57812e-015
rhumerus -35.2031 -10.083 -77.2237
rradius 35.3404
rwrist 6.64601
rhand -18.6478 10.5918
rfingers 7.12502
rthumb 7.64514 -19.25
lclavicle -5.65294e-014 3.57812e-015
lhumerus -32.627 2.36574 82.5699
lradius 33.5992
lwrist -5.01191
lhand -21.8201 25.3047
lfingers 7.12502
lthumb 4.58247 55.2351
rfemur -6.16457 -4.74968 18.8906
rtibia 30.6326
rfoot -17.372 -3.00538
rtoes 2.75129
lfemur -16.1085 -5.32653 -19.5317
ltibia 25.1022
lfoot -8.77753 -4.61736
ltoes -2.85227
